<svg xmlns="http://www.w3.org/2000/svg"  viewBox="0 0 32 32" width="32px" height="32px"><path d="M28.55,7.91c-2.66-1.75-5.32-2.95-7.97-3.58l-4.52-4.34l-4.42,4.25c-2.75,0.62-5.49,1.84-8.2,3.68L3,8.22v2.25 c0,3.61,0.88,7.11,2.5,10.21v2.83l2.58,1.06c1.35,1.62,2.94,3.07,4.75,4.27L16,30.95l3.17-2.11c1.78-1.19,3.35-2.61,4.69-4.2 l2.76-1.13v-3.06C28.16,17.41,29,14,29,10.47V8.21L28.55,7.91z M5.5,14.92C5.17,13.48,5,11.99,5,10.47V9.29 c1.08-0.7,2.16-1.3,3.24-1.79L5.5,10.13V14.92z M11.78,23.92v-6.17c0.01,0,0.03,0,0.03,0h1.07c0,0-0.38-0.34-1.1-0.62v-0.01 c-0.01,0-0.02,0-0.03-0.01c-0.09-0.03-0.18-0.06-0.28-0.09c-0.8-0.26-1.09-0.27-1.78-0.27c-0.01,0-0.02,0-0.02,0v6.31L7.5,22.17 V10.99l2.24-2.15l-0.07,4.91c1.05,0,1.05,0,2.11,0.13v-7L15,3.78v21.46L11.78,23.92z M18.06,27.17L16,28.55l-2.06-1.38 c-0.23-0.16-0.47-0.32-0.69-0.49l2.81,1.15l2.54-1.04C18.42,26.92,18.24,27.05,18.06,27.17z M17.12,25.24V3.78l7.5,7.21v2.72 c-0.95-0.45-1.81-0.94-2.5-1.59v-0.87l-1.81-1.5v11.5l1.81-0.5v-2.57l0.98-0.3c0,0-0.33-0.06-0.98-0.32 c-0.21-0.08-0.46-0.18-0.74-0.31v-2.5l0.74,0.35l2.5,1.18v5.89L17.12,25.24z M27,10.47c0,1.32-0.13,2.63-0.38,3.9v-4.24l-2.56-2.45 c0.97,0.45,1.95,0.99,2.94,1.61V10.47z"/></svg>