<?xml version="1.0" encoding="iso-8859-1"?>
<svg version="1.1" slot="logo-app" id="Layer_1" xmlns="http://www.w3.org/2000/svg" xmlns:xlink="http://www.w3.org/1999/xlink" x="0px" y="0px" viewBox="0 0 3349.17 550.74" xml:space="preserve"><linearGradient id="a" gradientUnits="userSpaceOnUse" x1="69.0952" y1="525.8441" x2="458.1069" y2="136.8323"><stop offset="0" style="stop-color: rgb(36, 50, 106);"></stop><stop offset="0.0611" style="stop-color: rgb(40, 51, 105);"></stop><stop offset="0.1228" style="stop-color: rgb(51, 53, 103);"></stop><stop offset="0.1848" style="stop-color: rgb(69, 56, 100);"></stop><stop offset="0.2471" style="stop-color: rgb(91, 61, 95);"></stop><stop offset="0.3095" style="stop-color: rgb(118, 68, 89);"></stop><stop offset="0.3721" style="stop-color: rgb(150, 78, 78);"></stop><stop offset="0.4336" style="stop-color: rgb(191, 91, 60);"></stop><stop offset="0.4872" style="stop-color: rgb(237, 107, 35);"></stop><stop offset="1" style="stop-color: rgb(156, 156, 156);"></stop></linearGradient><path fill="url(#a)" class="st0" d="M400.06,225.77v-0.17l0-146.82L263.6,0L127.14,78.78l0,146.82v0.17L0,299.18l0,157.57l136.46,78.79
	l127.14-73.41l127.14,73.41l136.46-78.79l0-157.57L400.06,225.77z M263.6,293.63l-108.52-62.65l108.52-62.66l108.52,62.66
	L263.6,293.63z M145.77,247.28l108.52,62.65l0,125.13l-108.52-62.65L145.77,247.28z M272.91,309.93l108.52-62.65l0,125.13
	l-108.52,62.65L272.91,309.93z M145.77,89.54L263.6,21.5l117.83,68.03l0,125.31L263.6,146.82l-117.83,68.03L145.77,89.54z
	 M18.63,445.99l0-136.06l108.52-62.65l0,135.89l117.98,68.12l-108.67,62.74L18.63,445.99z M508.58,445.99l-117.83,68.03
	l-108.67-62.74l117.98-68.12l0-135.89l108.52,62.65L508.58,445.99z"></path><g fill="#26316a"><path class="st1" d="M850.97,456.35l-73.88-133.39h-42.44v133.39h-93.8V78.95h163.49c37.2,0,66.02,7.94,89.6,25.41
		c28.82,21.17,44.02,56.11,44.02,93.69c0,46.05-22.01,91.04-70.74,111.16l85.94,147.15H850.97z M792.28,153.05h-58.16v100.04h58.16
		c33.54,0,54.5-19.58,54.5-50.28C846.78,167.87,823.72,153.05,792.28,153.05z"></path><path class="st1" d="M1005.55,456.35V78.95h93.8v377.4H1005.55z"></path><path class="st1" d="M1344.06,325.61h-77.55v130.74h-93.27V78.95h168.73c82.79,0,131,51.34,131,121.21
		C1472.96,262.09,1435.23,325.61,1344.06,325.61z M1326.76,153.05h-60.26v100.04h60.26c31.96,0,54.5-16.94,54.5-50.81
		C1381.26,169.46,1360.3,153.05,1326.76,153.05z"></path><path class="st1" d="M1530.08,456.35V78.95h275.1v76.75h-181.83v71.99h153.01v76.22h-153.01v75.16h182.88v77.28H1530.08z"></path><path class="st1" d="M2256.34,456.35l-22.53-70.4h-133.62l-23.06,70.4h-89.6L2120.1,78.42h100.61l131,377.93H2256.34z
		 M2167.78,175.28h-1.57l-43.49,136.56h88.03L2167.78,175.28z"></path><path class="st1" d="M2496.34,245.15v118.04c0,17.47,6.29,25.41,33.01,25.41c8.38,0,20.96-2.12,24.63-2.65v66.69
		c-19.39,5.29-45.06,8.47-60.78,8.47c-41.92,0-82.79-17.47-82.79-75.69V245.15h-35.63v-64.05h35.11v-78.34h86.46v78.34h58.69v64.05
		H2496.34z"></path><path class="st1" d="M2681.83,461.64c-58.16,0-78.08-38.64-78.08-76.22V78.95h86.46v285.3c0,12.17,4.19,21.17,22.01,21.17
		c7.86,0,15.2-1.06,25.15-2.12v69.34C2721.66,457.41,2700.7,461.64,2681.83,461.64z"></path><path class="st1" d="M2953.26,456.35c0-2.12-2.62-28.58-2.62-31.23h-2.1c-23.06,31.23-55.54,37.05-83.32,37.05
		c-52.92,0-91.18-28.58-91.18-80.98c0-65.63,67.6-90.51,123.14-90.51h48.21v-21.7c0-22.23-15.2-34.93-42.97-34.93
		s-40.87,13.23-40.87,28.05v8.47h-77.03V260.5c0-60.34,59.74-88.39,122.62-88.39c63.4,0,124.19,25.41,124.19,95.8v127.04
		c0,21.17,3.14,56.11,5.24,61.4H2953.26z M2904,339.37c-25.15,0-43.49,7.41-43.49,30.17c0,18,11.53,30.17,38.25,30.17
		c31.44,0,45.06-18,46.11-44.46l0.52-15.88H2904z"></path><path class="st1" d="M3211.6,462.17c-51.88,0-98.51-10.59-131.52-51.34l51.35-45.52c16.77,21.17,46.64,35.46,77.03,35.46
		c19.91,0,41.92-5.29,41.92-23.82c0-15.88-14.15-20.11-36.68-23.82c-1.57-1.06-20.44-3.71-21.48-3.71
		c-6.81-1.59-39.3-11.12-44.54-13.23c-34.06-12.17-53.97-33.35-53.97-68.81c0-58.22,48.21-95.28,116.33-95.28
		c55.02,0,90.13,12.7,117.9,45.52l-55.02,42.34c-15.72-18-37.73-26.47-60.26-26.47c-23.06,0-37.73,6.35-37.73,21.7
		c0,12.7,12.58,15.88,29.34,19.06c4.19,2.65,31.96,5.82,36.16,6.88c5.76,1.59,33.01,9,37.2,11.12
		c38.78,13.76,60.26,40.23,60.26,74.63C3337.88,434.65,3269.76,462.17,3211.6,462.17z"></path></g></svg>
