<?xml version="1.0" encoding="UTF-8" standalone="no" ?>
<!DOCTYPE svg PUBLIC "-//W3C//DTD SVG 1.1//EN" "http://www.w3.org/Graphics/SVG/1.1/DTD/svg11.dtd">
<svg xmlns="http://www.w3.org/2000/svg" xmlns:xlink="http://www.w3.org/1999/xlink" version="1.1" width="1000" height="1000" viewBox="0 0 1000 1000" xml:space="preserve">
<desc>Created with Fabric.js 5.3.0</desc>
<defs>
</defs>
<g transform="matrix(2.6897480481 0 0 2.6897480481 500 505.179700726)" id="pJxD8Glz5WlH0_vR8GWbg"  >
<path style="stroke: rgb(171,59,22); stroke-width: 0; stroke-dasharray: none; stroke-linecap: butt; stroke-dashoffset: 0; stroke-linejoin: miter; stroke-miterlimit: 4; fill: rgb(190,221,230); fill-rule: nonzero; opacity: 1;"  transform=" translate(0, 0)" d="M -187.64087 -187.64087 L 187.64087 -187.64087 L 187.64087 187.64087 L -187.64087 187.64087 z" stroke-linecap="round" />
</g>
<g transform="matrix(0.4724533615 -0.230430901 0.230430901 0.4724533615 89.5180491049 439.0719838541)" id="Nf73RX9UkmqGkeTVKfIPS"  >
<path style="stroke: none; stroke-width: 1; stroke-dasharray: none; stroke-linecap: butt; stroke-dashoffset: 0; stroke-linejoin: miter; stroke-miterlimit: 4; fill: rgb(255,255,255); fill-rule: nonzero; opacity: 1;"  transform=" translate(0, 0)" d="M 12 72.00648 C 12 78.6339 6.62742 84.00648 0 84.00648 C -6.62742 84.00648 -12 78.6339 -12 72.00648 C -12 65.37906 -6.62742 60.006479999999996 0 60.006479999999996 C 6.62742 60.006479999999996 12 65.37906 12 72.00648 z M 109.08 -44.99352 C 45.66211 -97.01079999999999 -45.66211 -97.01079999999999 -109.08 -44.99352 C -112.49588 -42.187909999999995 -112.99061 -37.1444 -110.185 -33.728519999999996 C -107.37939 -30.312639999999995 -102.33588 -29.817909999999998 -98.92 -32.62352 C -41.406150000000004 -79.78774 41.40615000000001 -79.78774 98.92 -32.62352 C 102.33588 -29.817909999999998 107.37939 -30.31264 110.185 -33.728519999999996 C 112.99061 -37.1444 112.49588 -42.187909999999995 109.08 -44.99352 z M 77 -9.22352 C 31.898600000000002 -44.93094 -31.8386 -44.93094 -76.94 -9.22352 C -80.40283 -6.4786600000000005 -80.98486 -1.4463500000000007 -78.24 2.0164799999999996 C -75.49513999999999 5.47931 -70.46283 6.0613399999999995 -67 3.3164799999999994 C -27.72132 -27.77467 27.781319999999994 -27.77467 67.06 3.3164799999999994 C 68.72282 4.634829999999999 70.8413 5.238519999999999 72.94928 4.994719999999999 C 75.05726 4.750909999999999 76.98201 3.6795899999999993 78.3 2.016479999999999 C 79.61834999999999 0.3536599999999992 80.22203999999999 -1.7648200000000007 79.97824 -3.872800000000001 C 79.73443 -5.980780000000001 78.66311 -7.905530000000001 77 -9.22352 z M 44.74 26.53648 C 30.397240000000004 16.11267 13.32046 11.2971 -3.54842 12.089760000000002 C -18.033070000000002 12.770390000000003 -32.36443 17.58596 -44.68 26.53648 C -48.25328 29.13774 -49.04126 34.1432 -46.44 37.716480000000004 C -43.83874 41.28976 -38.833279999999995 42.077740000000006 -35.26 39.47648 C -14.221099999999996 24.17566 14.281100000000002 24.17566 35.32 39.47648 C 38.89328 42.077740000000006 43.898740000000004 41.28976 46.5 37.716480000000004 C 49.101259999999996 34.14320000000001 48.31328 29.137740000000004 44.74 26.536480000000005 z" stroke-linecap="round" />
</g>
<g transform="matrix(0.6050132939 -0.0423066508 0.0423066508 0.6050132939 836.9480360846 243.6707315029)" id="aaWD-_cpzO3x45kRM67vQ"  >
<path style="stroke: none; stroke-width: 1; stroke-dasharray: none; stroke-linecap: butt; stroke-dashoffset: 0; stroke-linejoin: miter; stroke-miterlimit: 4; fill: rgb(255,255,255); fill-rule: nonzero; opacity: 1;"  transform=" translate(-131.9985084483, -124.000488222)" d="M 154.34 101.66 C 152.8377836557593 100.15945394286186 151.99370674867384 98.12327398479253 151.99370674867384 96 C 151.99370674867384 93.87672601520747 152.8377836557593 91.84054605713814 154.34 90.34 L 188.69 56 L 168 56 C 163.58172200135365 56 160 52.418277998646346 160 48 C 160 43.581722001353654 163.58172200135365 40 168 40 L 208 40 C 212.41827799864635 40 216 43.581722001353654 216 48 L 216 88 C 216 92.41827799864635 212.41827799864635 96 208 96 C 203.58172200135365 96 200 92.41827799864635 200 88 L 200 67.31 L 165.66 101.66 C 164.15945394286186 103.16221634424072 162.12327398479255 104.00629325132617 160 104.00629325132617 C 157.87672601520745 104.00629325132617 155.84054605713814 103.16221634424072 154.34 101.66 Z M 231.88 175.07999999999998 C 228.19142182845118 203.1111009238337 204.27270166193242 224.05068200017763 176 224 C 96.6 224 32 159.4 32 80 C 31.94931799982236 51.727298338067584 52.88889907616628 27.80857817154881 80.92 24.119999999999997 C 87.95481528604745 23.25917373755064 94.7176913834262 27.128906089299846 97.54 33.63000000000001 L 118.66000000000001 80.78999999999999 L 118.66000000000001 80.91 C 120.79448077715207 85.83462256915054 120.3175545929518 91.50140691527835 117.39 96 C 117.21 96.27 117.02 96.52 116.82000000000001 96.77 L 96 121.45 C 103.49 136.67000000000002 119.41 152.45 134.82999999999998 159.96 L 159.17 139.25 C 159.40902444324445 139.04906772568938 159.65944036714475 138.86209050251048 159.92 138.69 C 164.41133197012715 135.6789283288158 170.12345245953605 135.15177152689276 175.08999999999997 137.29 L 175.21999999999997 137.35 L 222.32999999999998 158.45999999999998 C 228.84681931172824 161.2691175420897 232.73465272198797 168.03516898486635 231.88 175.07999999999998 Z M 216 173.07999999999998 C 216 173.07999999999998 215.93 173.07999999999998 215.89 173.07999999999998 L 215.89 173.07999999999998 L 168.89 152.01999999999998 L 144.54 172.73999999999998 C 144.3037901046662 172.9400966152324 144.05675010475233 173.12704580435638 143.79999999999998 173.29999999999998 C 139.11627670027175 176.42473598048244 133.13488825405958 176.85767457277967 128.04999999999998 174.43999999999997 C 109.31999999999998 165.38999999999996 90.64999999999998 146.85999999999996 81.58999999999997 128.32999999999998 C 79.14984114854084 123.28286765042907 79.5292114743172 117.32675353574021 82.58999999999997 112.62999999999998 C 82.75962195648853 112.35885666427806 82.95020381808912 112.10140397404567 83.15999999999997 111.85999999999999 L 104 87.15 L 83 40.150000000000006 C 82.9960560112414 40.110097219045805 82.9960560112414 40.06990278095421 83 40.03000000000001 C 62.937196103000566 42.64710269498465 47.945785052981456 59.76729411410647 48 80.00000000000001 C 48.077158362841566 150.66046326064102 105.339536739359 207.92284163715846 176.00000000000003 208 C 196.21907224632454 208.06946026433965 213.34512474686528 193.11413491824243 216 173.07 Z" stroke-linecap="round" />
</g>
<g transform="matrix(5.9364412646 0 0 5.9364412646 665.9555383151 334.0444616849)" id="N6M3wP7atdHnPWSHxDU-J"  >
<path style="stroke: rgb(41,200,166); stroke-width: 0; stroke-dasharray: none; stroke-linecap: butt; stroke-dashoffset: 0; stroke-linejoin: miter; stroke-miterlimit: 4; fill: rgb(180,215,237); fill-rule: nonzero; opacity: 1;"  transform=" translate(0, 0)" d="M 0 -56.19047 C 31.01714 -56.19047 56.19047 -31.017139999999998 56.19047 0 C 56.19047 31.01714 31.017139999999998 56.19047 0 56.19047 C -31.01714 56.19047 -56.19047 31.017139999999998 -56.19047 0 C -56.19047 -31.01714 -31.017139999999998 -56.19047 0 -56.19047 z" stroke-linecap="round" />
</g>
<g transform="matrix(3.6567798675 0 0 3.6567798675 222.3684210526 789.90941803)" id="ePL05WaugLvsmaIgjosSs"  >
<path style="stroke: rgb(41,200,166); stroke-width: 0; stroke-dasharray: none; stroke-linecap: butt; stroke-dashoffset: 0; stroke-linejoin: miter; stroke-miterlimit: 4; fill: rgb(180,215,237); fill-rule: nonzero; opacity: 1;"  transform=" translate(0, 0)" d="M 0 -56.19047 C 31.01714 -56.19047 56.19047 -31.017139999999998 56.19047 0 C 56.19047 31.01714 31.017139999999998 56.19047 0 56.19047 C -31.01714 56.19047 -56.19047 31.017139999999998 -56.19047 0 C -56.19047 -31.01714 -31.017139999999998 -56.19047 0 -56.19047 z" stroke-linecap="round" />
</g>
<g transform="matrix(0.32930622 -0.266666919 0.266666919 0.32930622 910.8571825105 789.90941803)" id="-GKCisqYQ4ycxDn0aA9aC"  >
<path style="stroke: none; stroke-width: 1; stroke-dasharray: none; stroke-linecap: butt; stroke-dashoffset: 0; stroke-linejoin: miter; stroke-miterlimit: 4; fill: rgb(255,255,255); fill-rule: nonzero; opacity: 1;"  transform=" translate(-128.0003793623, -136)" d="M 201.89 54.66 C 182.56201519667582 35.13763550460766 156.26148275758698 24.106522993219638 128.78999999999996 24 L 128 24 C 70.56238601759748 24 24 70.56238601759748 24 128 L 24 184 C 24 197.25483399593904 34.745166004060955 208 48 208 L 64 208 C 77.25483399593904 208 88 197.25483399593904 88 184 L 88 144 C 88 130.74516600406096 77.25483399593904 120 64 120 L 40.36 120 C 43.50967354777617 85.94642969329988 66.07800158402821 56.79047339395301 98.25497934364547 45.205647268886366 C 130.43195710326273 33.620821143819725 166.4060371118689 41.69948350931729 190.53999999999996 65.92999999999995 C 204.98891869042671 80.45300396465406 213.8763848814339 99.59061037436163 215.65000000000003 119.99999999999996 L 192 120 C 178.74516600406096 120 168 130.74516600406096 168 144 L 168 184 C 168 197.25483399593904 178.74516600406096 208 192 208 L 216 208 C 216 221.25483399593904 205.25483399593904 232 192 232 L 136 232 C 131.58172200135365 232 128 235.58172200135365 128 240 C 128 244.41827799864635 131.58172200135365 248 136 248 L 192 248 C 214.09138999323173 248 232 230.09138999323173 232 208 L 232 128 C 232.10517770826894 100.52399730435 221.27137873375517 74.13572706885223 201.89 54.66 Z M 64 136 C 68.41827799864635 136 72 139.58172200135365 72 144 L 72 184 C 72 188.41827799864635 68.41827799864635 192 64 192 L 48 192 C 43.581722001353654 192 40 188.41827799864635 40 184 L 40 136 Z M 192 192 C 187.58172200135365 192 184 188.41827799864635 184 184 L 184 144 C 184 139.58172200135365 187.58172200135365 136 192 136 L 216 136 L 216 192 Z" stroke-linecap="round" />
</g>
<g transform="matrix(1.2239467789 0.6236320327 -0.6196718374 1.216174458 81.0762956975 761.6910160927)" id="IS_jSq2LuE9nFEQoexV0r"  >
<g style=""   >
		<g transform="matrix(1 0 0 1 0 30.1)" id="oyyvnXQdsP96Koa0IEn1c"  >
<path style="stroke: none; stroke-width: 1; stroke-dasharray: none; stroke-linecap: butt; stroke-dashoffset: 0; stroke-linejoin: miter; stroke-miterlimit: 4; fill: rgb(179,181,179); fill-rule: nonzero; opacity: 1;"  transform=" translate(-40, -70.1)" d="M 80 70.1 C 80 71 79.1 72.1 77.7 72.1 L 2.3 72.1 C 0.8999999999999999 72.1 0 71 0 70.1 C 0 69.19999999999999 0.9 68.1 2.3 68.1 L 77.7 68.1 C 79.1 68.1 80 69.2 80 70.1 z" stroke-linecap="round" />
</g>
		<g transform="matrix(1 0 0 1 28.45 -3.5)" id="3v_VKGU1iLlWfKJVmekGy"  >
<path style="stroke: none; stroke-width: 1; stroke-dasharray: none; stroke-linecap: butt; stroke-dashoffset: 0; stroke-linejoin: miter; stroke-miterlimit: 4; fill: rgb(179,181,179); fill-rule: nonzero; opacity: 1;"  transform=" translate(-68.45, -36.5)" d="M 80 7.9 L 56.9 7.9 L 56.9 65.10000000000001 L 80 65.10000000000001 L 80 7.9 z" stroke-linecap="round" />
</g>
		<g transform="matrix(1 0 0 1 -0.25 4.4)" id="eUfo4MhMWqOM0aOCFq7ZV"  >
<path style="stroke: none; stroke-width: 1; stroke-dasharray: none; stroke-linecap: butt; stroke-dashoffset: 0; stroke-linejoin: miter; stroke-miterlimit: 4; fill: rgb(179,181,179); fill-rule: nonzero; opacity: 1;"  transform=" translate(-39.75, -44.4)" d="M 51.3 23.7 L 28.2 23.7 L 28.2 65.1 L 51.3 65.1 L 51.3 23.7 z" stroke-linecap="round" />
</g>
		<g transform="matrix(1 0 0 1 -28.45 12)" id="j_x60kw5eecpCIl4Ebg_P"  >
<path style="stroke: none; stroke-width: 1; stroke-dasharray: none; stroke-linecap: butt; stroke-dashoffset: 0; stroke-linejoin: miter; stroke-miterlimit: 4; fill: rgb(179,181,179); fill-rule: nonzero; opacity: 1;"  transform=" translate(-11.55, -52)" d="M 23.1 38.9 L 0 38.9 L 0 65.1 L 23.1 65.1 L 23.1 38.9 z" stroke-linecap="round" />
</g>
		<g transform="matrix(1 0 0 1 28.45 -3.55)" id="8YKgVl_7hRVvQ-nTNuCzk"  >
<path style="stroke: none; stroke-width: 1; stroke-dasharray: none; stroke-linecap: butt; stroke-dashoffset: 0; stroke-linejoin: miter; stroke-miterlimit: 4; fill: rgb(255,255,255); fill-rule: nonzero; opacity: 1;"  transform=" translate(-68.45, -36.45)" d="M 61.1 12 L 75.8 12 L 75.8 60.9 L 61.1 60.9 L 61.1 12 z" stroke-linecap="round" />
</g>
		<g transform="matrix(1 0 0 1 -0.25 4.35)" id="HDetqAInFbt4qLJ2Lqpk_"  >
<path style="stroke: none; stroke-width: 1; stroke-dasharray: none; stroke-linecap: butt; stroke-dashoffset: 0; stroke-linejoin: miter; stroke-miterlimit: 4; fill: rgb(255,255,255); fill-rule: nonzero; opacity: 1;"  transform=" translate(-39.75, -44.35)" d="M 32.4 27.8 L 47.099999999999994 27.8 L 47.099999999999994 60.900000000000006 L 32.4 60.900000000000006 L 32.4 27.8 z" stroke-linecap="round" />
</g>
		<g transform="matrix(1 0 0 1 -28.45 11.95)" id="iZgZpX2T6vsSIq_Hv1lmj"  >
<path style="stroke: none; stroke-width: 1; stroke-dasharray: none; stroke-linecap: butt; stroke-dashoffset: 0; stroke-linejoin: miter; stroke-miterlimit: 4; fill: rgb(255,255,255); fill-rule: nonzero; opacity: 1;"  transform=" translate(-11.55, -51.95)" d="M 4.2 43 L 18.9 43 L 18.9 60.9 L 4.2 60.9 L 4.2 43 z" stroke-linecap="round" />
</g>
</g>
</g>
<g transform="matrix(1.8781631819 0 0 1.8781631819 910.3791254289 442.8946645038)" id="Gw9MTF46uepIHkwX0UuQ-"  >
<g style=""   >
		<g transform="matrix(1 0 0 1 0 0)" id="BYF-r6Z0wL3_xx57_gXu7"  >
<path style="stroke: none; stroke-width: 1; stroke-dasharray: none; stroke-linecap: butt; stroke-dashoffset: 0; stroke-linejoin: miter; stroke-miterlimit: 4; fill: rgb(179,181,179); fill-rule: nonzero; opacity: 1;"  transform=" translate(-39.9955833199, -39.9968448477)" d="M 74 27.9 C 73.8 24.5 72.1 -3.700000000000003 37 0.3999999999999986 C 24.1 2.2999999999999985 15.399999999999999 11.499999999999998 14.2 24.4 C 14.1 25.4 14 26.7 14 28 C 14 29.1 13.9 29.7 13.7 30.2 C 13.499999999999998 30.7 6.4 44.7 6.4 44.7 C 6.2 45 5.8 45.6 6 46.5 C 6.2 47.4 6.8 48.2 8 48.8 C 8.5 49.099999999999994 9 49.3 9.5 49.5 C 10.5 49.9 11.4 50.3 12 51.2 C 12.8 52.300000000000004 12.8 53.5 12.8 54.900000000000006 C 12.8 55.300000000000004 12.600000000000001 59.7 12.600000000000001 59.7 C 12.400000000000002 62.300000000000004 12.3 65 13.600000000000001 66.9 C 14.900000000000002 68.80000000000001 17.3 69 19.6 69 C 19.900000000000002 69 26.1 69 26.1 69 C 28.8 69 29.5 70.7 29.6 72.3 C 29.6 72.3 29.6 79.39999999999999 29.6 79.3 C 29.6 79.7 29.900000000000002 80 30.3 80 L 61.2 80 C 61.6 80 61.900000000000006 79.7 61.900000000000006 79.3 L 61.900000000000006 59.2 C 61.900000000000006 58.7 62.10000000000001 58.2 62.60000000000001 57.7 C 74.9 45 74.1 31.3 74 27.9 z" stroke-linecap="round" />
</g>
		<g transform="matrix(1 0 0 1 4.2044166801 -11.5968448477)" id="A0Q_B3NxzYGzlndtJSbYb"  >
<path style="stroke: none; stroke-width: 1; stroke-dasharray: none; stroke-linecap: butt; stroke-dashoffset: 0; stroke-linejoin: miter; stroke-miterlimit: 4; fill: rgb(255,255,255); fill-rule: nonzero; opacity: 1;"  transform=" translate(-44.2, -28.4)" d="M 44.2 9.3 C 33.6 9.3 25.1 17.9 25.1 28.400000000000002 C 25.1 38.900000000000006 33.7 47.5 44.2 47.5 C 54.7 47.5 63.300000000000004 38.9 63.300000000000004 28.4 C 63.3 17.8 54.7 9.3 44.2 9.3 z" stroke-linecap="round" />
</g>
		<g transform="matrix(1 0 0 1 4.1044166801 -11.6968448477)" id="g_1JOaEJtxCKgRaEYo3rS"  >
<path style="stroke: none; stroke-width: 1; stroke-dasharray: none; stroke-linecap: butt; stroke-dashoffset: 0; stroke-linejoin: miter; stroke-miterlimit: 4; fill: rgb(179,181,179); fill-rule: nonzero; opacity: 1;"  transform=" translate(-44.1, -28.3)" d="M 57.1 24.9 L 54.1 24.9 L 53.6 23.599999999999998 L 55.6 21.299999999999997 C 55.9 20.999999999999996 55.800000000000004 20.599999999999998 55.5 20.299999999999997 L 51.5 16.699999999999996 C 51.4 16.599999999999994 51.2 16.499999999999996 51 16.499999999999996 C 50.8 16.499999999999996 50.6 16.599999999999998 50.5 16.699999999999996 L 48.7 18.699999999999996 L 47.400000000000006 18.199999999999996 L 47.400000000000006 15.299999999999995 C 47.400000000000006 14.899999999999995 47.10000000000001 14.599999999999996 46.7 14.599999999999996 L 41.400000000000006 14.599999999999996 C 41.00000000000001 14.599999999999996 40.7 14.899999999999997 40.7 15.299999999999995 L 40.7 18.199999999999996 L 39.6 18.599999999999994 L 37.800000000000004 16.599999999999994 C 37.7 16.499999999999993 37.50000000000001 16.399999999999995 37.300000000000004 16.399999999999995 C 37.1 16.399999999999995 36.900000000000006 16.499999999999996 36.800000000000004 16.599999999999994 L 32.800000000000004 20.199999999999996 C 32.50000000000001 20.499999999999996 32.50000000000001 20.899999999999995 32.7 21.199999999999996 L 34.7 23.399999999999995 L 34.1 24.799999999999994 L 31.1 24.799999999999994 C 30.700000000000003 24.799999999999994 30.400000000000002 25.099999999999994 30.400000000000002 25.499999999999993 L 30.400000000000002 30.799999999999994 C 30.400000000000002 31.199999999999992 30.700000000000003 31.499999999999993 31.1 31.499999999999993 L 34 31.499999999999993 L 34.5 32.79999999999999 L 32.2 35.39999999999999 C 32.1 35.49999999999999 32 35.69999999999999 32 35.89999999999999 C 32 36.099999999999994 32.1 36.29999999999999 32.2 36.39999999999999 L 36.2 39.99999999999999 C 36.300000000000004 40.099999999999994 36.5 40.199999999999996 36.7 40.199999999999996 C 36.900000000000006 40.199999999999996 37.1 40.099999999999994 37.2 39.99999999999999 L 39.2 37.79999999999999 L 40.5 38.39999999999999 L 40.5 41.29999999999999 C 40.5 41.69999999999999 40.8 41.99999999999999 41.2 41.99999999999999 L 46.800000000000004 41.99999999999999 C 47.2 41.99999999999999 47.50000000000001 41.699999999999996 47.50000000000001 41.29999999999999 L 47.50000000000001 38.39999999999999 L 49.10000000000001 37.69999999999999 L 50.80000000000001 39.69999999999999 C 50.90000000000001 39.79999999999999 51.10000000000001 39.89999999999999 51.30000000000001 39.89999999999999 C 51.500000000000014 39.89999999999999 51.70000000000001 39.79999999999999 51.80000000000001 39.69999999999999 L 55.80000000000001 36.09999999999999 C 55.90000000000001 35.999999999999986 56.000000000000014 35.79999999999999 56.000000000000014 35.59999999999999 C 56.000000000000014 35.399999999999984 55.90000000000001 35.19999999999999 55.80000000000001 35.09999999999999 L 53.70000000000001 32.69999999999999 L 54.20000000000001 31.599999999999987 L 57.10000000000001 31.599999999999987 C 57.50000000000001 31.599999999999987 57.80000000000001 31.299999999999986 57.80000000000001 30.899999999999988 L 57.80000000000001 25.499999999999986 C 57.8 25.7 57.8 24.9 57.1 24.9 z" stroke-linecap="round" />
</g>
		<g transform="matrix(1 0 0 1 4.2044166801 -11.5968448477)" id="nMk9yLQ5EQVWJZq6MuXQV"  >
<path style="stroke: none; stroke-width: 1; stroke-dasharray: none; stroke-linecap: butt; stroke-dashoffset: 0; stroke-linejoin: miter; stroke-miterlimit: 4; fill: rgb(255,255,255); fill-rule: nonzero; opacity: 1;"  transform=" translate(-44.2, -28.4)" d="M 47.9 28.4 C 47.9 30.4 46.199999999999996 32.1 44.199999999999996 32.1 C 42.199999999999996 32.1 40.49999999999999 30.5 40.49999999999999 28.400000000000002 C 40.49999999999999 26.400000000000002 42.099999999999994 24.700000000000003 44.199999999999996 24.700000000000003 C 46.2 24.7 47.9 26.3 47.9 28.4 z" stroke-linecap="round" />
</g>
</g>
</g>
</svg>